<svg xmlns="http://www.w3.org/2000/svg" viewBox="0 0 390 844" preserveAspectRatio="xMidYMid slice">
  <rect width="390" height="844" fill="#000000"/>
  <!-- Stars layer 1 - tiny (r=0.6-0.8) -->
  <circle cx="12" cy="23" r="0.6" fill="white" opacity="0.7"/>
  <circle cx="34" cy="67" r="0.7" fill="white" opacity="0.6"/>
  <circle cx="58" cy="14" r="0.6" fill="white" opacity="0.8"/>
  <circle cx="82" cy="41" r="0.5" fill="white" opacity="0.5"/>
  <circle cx="101" cy="88" r="0.7" fill="white" opacity="0.7"/>
  <circle cx="127" cy="19" r="0.6" fill="white" opacity="0.6"/>
  <circle cx="153" cy="55" r="0.8" fill="white" opacity="0.9"/>
  <circle cx="178" cy="32" r="0.5" fill="white" opacity="0.5"/>
  <circle cx="199" cy="77" r="0.6" fill="white" opacity="0.7"/>
  <circle cx="224" cy="11" r="0.7" fill="white" opacity="0.6"/>
  <circle cx="248" cy="48" r="0.6" fill="white" opacity="0.8"/>
  <circle cx="271" cy="93" r="0.5" fill="white" opacity="0.5"/>
  <circle cx="296" cy="28" r="0.8" fill="white" opacity="0.9"/>
  <circle cx="318" cy="65" r="0.6" fill="white" opacity="0.6"/>
  <circle cx="342" cy="16" r="0.7" fill="white" opacity="0.7"/>
  <circle cx="367" cy="52" r="0.5" fill="white" opacity="0.5"/>
  <circle cx="22" cy="118" r="0.7" fill="white" opacity="0.6"/>
  <circle cx="47" cy="142" r="0.6" fill="white" opacity="0.8"/>
  <circle cx="71" cy="107" r="0.8" fill="white" opacity="0.9"/>
  <circle cx="95" cy="163" r="0.5" fill="white" opacity="0.5"/>
  <circle cx="119" cy="128" r="0.6" fill="white" opacity="0.7"/>
  <circle cx="144" cy="181" r="0.7" fill="white" opacity="0.6"/>
  <circle cx="168" cy="114" r="0.6" fill="white" opacity="0.8"/>
  <circle cx="192" cy="155" r="0.8" fill="white" opacity="0.9"/>
  <circle cx="216" cy="131" r="0.5" fill="white" opacity="0.5"/>
  <circle cx="241" cy="170" r="0.7" fill="white" opacity="0.7"/>
  <circle cx="265" cy="108" r="0.6" fill="white" opacity="0.6"/>
  <circle cx="289" cy="148" r="0.8" fill="white" opacity="0.8"/>
  <circle cx="313" cy="122" r="0.5" fill="white" opacity="0.5"/>
  <circle cx="337" cy="175" r="0.7" fill="white" opacity="0.7"/>
  <circle cx="362" cy="139" r="0.6" fill="white" opacity="0.6"/>
  <circle cx="18" cy="208" r="0.8" fill="white" opacity="0.9"/>
  <circle cx="43" cy="232" r="0.5" fill="white" opacity="0.5"/>
  <circle cx="67" cy="195" r="0.7" fill="white" opacity="0.7"/>
  <circle cx="91" cy="251" r="0.6" fill="white" opacity="0.6"/>
  <circle cx="115" cy="215" r="0.8" fill="white" opacity="0.8"/>
  <circle cx="139" cy="268" r="0.5" fill="white" opacity="0.5"/>
  <circle cx="163" cy="228" r="0.7" fill="white" opacity="0.7"/>
  <circle cx="187" cy="245" r="0.6" fill="white" opacity="0.6"/>
  <circle cx="211" cy="201" r="0.8" fill="white" opacity="0.9"/>
  <circle cx="235" cy="258" r="0.5" fill="white" opacity="0.5"/>
  <circle cx="259" cy="218" r="0.7" fill="white" opacity="0.7"/>
  <circle cx="283" cy="272" r="0.6" fill="white" opacity="0.6"/>
  <circle cx="307" cy="234" r="0.8" fill="white" opacity="0.8"/>
  <circle cx="331" cy="261" r="0.5" fill="white" opacity="0.5"/>
  <circle cx="355" cy="207" r="0.7" fill="white" opacity="0.7"/>
  <!-- Stars layer 2 - medium (r=0.9-1.2) -->
  <circle cx="28" cy="305" r="1.0" fill="white" opacity="0.8"/>
  <circle cx="55" cy="328" r="1.1" fill="white" opacity="0.7"/>
  <circle cx="83" cy="292" r="0.9" fill="white" opacity="0.9"/>
  <circle cx="110" cy="347" r="1.2" fill="white" opacity="0.6"/>
  <circle cx="138" cy="311" r="1.0" fill="white" opacity="0.8"/>
  <circle cx="165" cy="358" r="0.9" fill="white" opacity="0.7"/>
  <circle cx="193" cy="315" r="1.1" fill="white" opacity="0.9"/>
  <circle cx="220" cy="342" r="1.0" fill="white" opacity="0.8"/>
  <circle cx="248" cy="298" r="0.9" fill="white" opacity="0.7"/>
  <circle cx="275" cy="361" r="1.2" fill="white" opacity="0.6"/>
  <circle cx="303" cy="319" r="1.0" fill="white" opacity="0.8"/>
  <circle cx="330" cy="352" r="0.9" fill="white" opacity="0.9"/>
  <circle cx="358" cy="307" r="1.1" fill="white" opacity="0.7"/>
  <circle cx="15" cy="390" r="1.0" fill="white" opacity="0.8"/>
  <circle cx="42" cy="418" r="0.9" fill="white" opacity="0.7"/>
  <circle cx="70" cy="382" r="1.1" fill="white" opacity="0.9"/>
  <circle cx="97" cy="435" r="1.0" fill="white" opacity="0.8"/>
  <circle cx="125" cy="401" r="0.9" fill="white" opacity="0.7"/>
  <circle cx="152" cy="446" r="1.2" fill="white" opacity="0.6"/>
  <circle cx="180" cy="408" r="1.0" fill="white" opacity="0.8"/>
  <circle cx="207" cy="428" r="0.9" fill="white" opacity="0.9"/>
  <circle cx="235" cy="393" r="1.1" fill="white" opacity="0.7"/>
  <circle cx="262" cy="441" r="1.0" fill="white" opacity="0.8"/>
  <circle cx="290" cy="415" r="0.9" fill="white" opacity="0.7"/>
  <circle cx="317" cy="388" r="1.2" fill="white" opacity="0.6"/>
  <circle cx="345" cy="432" r="1.0" fill="white" opacity="0.8"/>
  <circle cx="372" cy="405" r="0.9" fill="white" opacity="0.9"/>
  <!-- Stars layer 3 - lower half -->
  <circle cx="21" cy="478" r="0.7" fill="white" opacity="0.6"/>
  <circle cx="49" cy="512" r="0.9" fill="white" opacity="0.8"/>
  <circle cx="77" cy="468" r="0.6" fill="white" opacity="0.7"/>
  <circle cx="104" cy="525" r="1.0" fill="white" opacity="0.9"/>
  <circle cx="132" cy="489" r="0.7" fill="white" opacity="0.6"/>
  <circle cx="159" cy="538" r="0.8" fill="white" opacity="0.7"/>
  <circle cx="187" cy="502" r="0.9" fill="white" opacity="0.8"/>
  <circle cx="214" cy="471" r="0.6" fill="white" opacity="0.7"/>
  <circle cx="242" cy="518" r="1.0" fill="white" opacity="0.9"/>
  <circle cx="269" cy="483" r="0.7" fill="white" opacity="0.6"/>
  <circle cx="297" cy="531" r="0.8" fill="white" opacity="0.7"/>
  <circle cx="324" cy="495" r="0.9" fill="white" opacity="0.8"/>
  <circle cx="352" cy="462" r="0.6" fill="white" opacity="0.7"/>
  <circle cx="379" cy="509" r="1.0" fill="white" opacity="0.9"/>
  <circle cx="10" cy="565" r="0.8" fill="white" opacity="0.7"/>
  <circle cx="38" cy="598" r="0.7" fill="white" opacity="0.6"/>
  <circle cx="66" cy="558" r="0.9" fill="white" opacity="0.8"/>
  <circle cx="93" cy="611" r="0.6" fill="white" opacity="0.7"/>
  <circle cx="121" cy="578" r="1.0" fill="white" opacity="0.9"/>
  <circle cx="148" cy="624" r="0.7" fill="white" opacity="0.6"/>
  <circle cx="176" cy="591" r="0.8" fill="white" opacity="0.7"/>
  <circle cx="203" cy="615" r="0.9" fill="white" opacity="0.8"/>
  <circle cx="231" cy="572" r="0.6" fill="white" opacity="0.7"/>
  <circle cx="258" cy="608" r="1.0" fill="white" opacity="0.9"/>
  <circle cx="286" cy="584" r="0.7" fill="white" opacity="0.6"/>
  <circle cx="313" cy="628" r="0.8" fill="white" opacity="0.7"/>
  <circle cx="341" cy="561" r="0.9" fill="white" opacity="0.8"/>
  <circle cx="368" cy="597" r="0.6" fill="white" opacity="0.7"/>
  <!-- Stars bottom -->
  <circle cx="25" cy="652" r="0.7" fill="white" opacity="0.7"/>
  <circle cx="53" cy="688" r="0.8" fill="white" opacity="0.8"/>
  <circle cx="81" cy="641" r="0.6" fill="white" opacity="0.6"/>
  <circle cx="108" cy="715" r="0.9" fill="white" opacity="0.9"/>
  <circle cx="136" cy="669" r="0.7" fill="white" opacity="0.7"/>
  <circle cx="163" cy="728" r="0.6" fill="white" opacity="0.6"/>
  <circle cx="191" cy="682" r="0.8" fill="white" opacity="0.8"/>
  <circle cx="218" cy="648" r="0.7" fill="white" opacity="0.7"/>
  <circle cx="246" cy="705" r="0.9" fill="white" opacity="0.9"/>
  <circle cx="273" cy="661" r="0.6" fill="white" opacity="0.6"/>
  <circle cx="301" cy="722" r="0.8" fill="white" opacity="0.8"/>
  <circle cx="328" cy="675" r="0.7" fill="white" opacity="0.7"/>
  <circle cx="356" cy="698" r="0.9" fill="white" opacity="0.9"/>
  <circle cx="383" cy="655" r="0.6" fill="white" opacity="0.6"/>
  <circle cx="37" cy="755" r="0.8" fill="white" opacity="0.7"/>
  <circle cx="65" cy="778" r="0.7" fill="white" opacity="0.8"/>
  <circle cx="93" cy="742" r="0.9" fill="white" opacity="0.9"/>
  <circle cx="120" cy="801" r="0.6" fill="white" opacity="0.6"/>
  <circle cx="148" cy="768" r="0.8" fill="white" opacity="0.7"/>
  <circle cx="175" cy="815" r="0.7" fill="white" opacity="0.8"/>
  <circle cx="203" cy="752" r="0.9" fill="white" opacity="0.9"/>
  <circle cx="230" cy="788" r="0.6" fill="white" opacity="0.6"/>
  <circle cx="258" cy="731" r="0.8" fill="white" opacity="0.7"/>
  <circle cx="285" cy="811" r="0.7" fill="white" opacity="0.8"/>
  <circle cx="313" cy="765" r="0.9" fill="white" opacity="0.9"/>
  <circle cx="340" cy="828" r="0.6" fill="white" opacity="0.6"/>
  <circle cx="368" cy="748" r="0.8" fill="white" opacity="0.7"/>
  <!-- Brighter stars scattered -->
  <circle cx="195" cy="148" r="1.5" fill="white" opacity="0.95"/>
  <circle cx="78" cy="222" r="1.4" fill="white" opacity="0.9"/>
  <circle cx="312" cy="185" r="1.6" fill="white" opacity="0.95"/>
  <circle cx="44" cy="355" r="1.5" fill="white" opacity="0.9"/>
  <circle cx="356" cy="270" r="1.4" fill="white" opacity="0.85"/>
  <circle cx="155" cy="448" r="1.5" fill="white" opacity="0.95"/>
  <circle cx="278" cy="402" r="1.6" fill="white" opacity="0.9"/>
  <circle cx="88" cy="521" r="1.4" fill="white" opacity="0.85"/>
  <circle cx="342" cy="498" r="1.5" fill="white" opacity="0.95"/>
  <circle cx="196" cy="572" r="1.6" fill="white" opacity="0.9"/>
  <circle cx="62" cy="633" r="1.4" fill="white" opacity="0.85"/>
  <circle cx="321" cy="618" r="1.5" fill="white" opacity="0.95"/>
  <circle cx="142" cy="698" r="1.6" fill="white" opacity="0.9"/>
  <circle cx="258" cy="741" r="1.4" fill="white" opacity="0.85"/>
  <!-- Milky Way cluster effect - denser in middle -->
  <circle cx="188" cy="88" r="0.5" fill="white" opacity="0.4"/>
  <circle cx="201" cy="95" r="0.4" fill="white" opacity="0.35"/>
  <circle cx="176" cy="101" r="0.5" fill="white" opacity="0.4"/>
  <circle cx="214" cy="82" r="0.4" fill="white" opacity="0.35"/>
  <circle cx="207" cy="108" r="0.5" fill="white" opacity="0.4"/>
  <circle cx="183" cy="115" r="0.4" fill="white" opacity="0.35"/>
  <circle cx="221" cy="121" r="0.5" fill="white" opacity="0.4"/>
  <circle cx="170" cy="78" r="0.4" fill="white" opacity="0.3"/>
  <circle cx="228" cy="96" r="0.5" fill="white" opacity="0.35"/>
  <circle cx="195" cy="128" r="0.4" fill="white" opacity="0.4"/>
</svg>
